<?xml version="1.0" standalone="no"?>
<!DOCTYPE svg PUBLIC "-//W3C//DTD SVG 20010904//EN"
 "http://www.w3.org/TR/2001/REC-SVG-20010904/DTD/svg10.dtd">
<svg version="1.0" xmlns="http://www.w3.org/2000/svg"
 width="1179.000000pt" height="379.000000pt" viewBox="0 0 1179.000000 379.000000"
 preserveAspectRatio="xMidYMid meet">

<g transform="translate(0.000000,379.000000) scale(0.100000,-0.100000)"
fill="#E3F4F8" stroke="none">
<path d="M1129 3646 c-102 -27 -185 -98 -239 -206 -49 -97 -64 -176 -65 -345
l-1 -150 -78 -80 c-270 -277 -475 -639 -566 -1000 -51 -200 -80 -424 -80 -610
l0 -103 99 -91 c54 -50 101 -91 103 -91 3 0 8 82 11 183 8 208 24 341 62 512
59 269 167 522 313 741 74 110 204 275 221 282 4 1 31 -29 60 -67 52 -71 126
-142 179 -173 29 -17 29 -17 91 28 l61 46 -59 64 c-112 120 -181 270 -200 435
-23 201 42 380 149 409 122 33 349 -103 542 -324 l78 -90 97 3 c54 1 101 5
106 8 8 5 -40 97 -80 150 -12 17 -23 35 -23 39 0 11 256 -3 345 -20 311 -56
554 -170 793 -371 103 -86 199 -192 234 -258 20 -36 23 -57 23 -147 0 -104 0
-105 39 -170 58 -97 140 -212 237 -335 47 -60 101 -132 118 -160 l32 -50 -28
-8 c-35 -9 -291 -10 -395 -1 l-77 7 27 -68 c24 -61 33 -73 97 -120 95 -70 152
-134 161 -180 16 -87 -86 -207 -245 -289 -229 -117 -435 -131 -661 -44 -283
110 -387 140 -631 182 -266 46 -377 95 -510 226 -109 108 -191 257 -229 419
-16 67 -24 54 -40 -59 -28 -206 32 -406 165 -548 102 -109 221 -177 391 -222
44 -12 85 -23 92 -26 11 -3 9 -12 -7 -37 -143 -217 -227 -416 -257 -614 l-6
-42 68 -34 c102 -51 252 -105 398 -143 72 -18 131 -32 132 -31 1 1 7 40 13 87
28 195 108 365 234 497 l50 52 65 -70 c233 -252 546 -325 812 -189 110 56 225
214 285 391 17 49 38 86 70 121 56 63 114 180 154 315 39 134 55 245 49 358
-7 122 -24 157 -227 464 l-161 244 0 72 c0 183 -39 264 -204 431 -387 390
-888 594 -1456 594 l-149 0 -73 55 c-176 133 -367 190 -509 151z m2625 -2258
c-17 -98 -67 -231 -102 -270 -31 -36 -92 -7 -92 43 0 30 169 257 192 258 4 1
5 -14 2 -31z m-289 -452 c46 -33 0 -160 -85 -240 -93 -87 -220 -126 -345 -106
-84 13 -162 43 -216 82 -45 31 -139 118 -139 128 0 3 78 5 173 6 152 1 183 4
270 27 53 14 139 46 190 71 100 48 123 53 152 32z"/>
<path d="M1164 3253 c-8 -21 -20 -76 -26 -123 -9 -70 -8 -99 5 -165 24 -117
84 -230 163 -310 36 -36 71 -65 77 -65 20 0 170 124 211 175 l38 46 -17 47
c-59 157 -209 337 -339 406 -69 37 -92 35 -112 -11z"/>
<path d="M9290 2571 c-225 -31 -391 -186 -451 -419 -23 -92 -25 -256 -4 -355
41 -195 188 -356 374 -411 64 -19 225 -21 303 -5 134 29 264 131 324 255 41
86 64 195 64 305 l0 79 -260 0 -260 0 0 -95 0 -94 148 -3 147 -3 -3 -30 c-5
-48 -36 -107 -77 -147 -113 -111 -328 -101 -438 21 -77 86 -102 174 -95 337 8
168 58 266 168 328 51 29 62 31 155 31 91 0 104 -2 147 -27 51 -30 105 -90
114 -125 4 -13 11 -23 18 -23 28 1 190 58 194 69 8 24 -58 138 -107 184 -53
50 -141 98 -211 115 -64 16 -186 22 -250 13z"/>
<path d="M4385 2122 c0 -240 -3 -449 -7 -464 -19 -64 -105 -127 -175 -128
l-33 0 0 -101 0 -102 80 7 c141 12 243 65 307 160 62 91 63 102 63 608 l0 458
-117 0 -118 0 0 -438z"/>
<path d="M2515 2503 c-173 -20 -315 -48 -315 -62 0 -4 53 -23 118 -43 l118
-37 17 -58 c21 -78 64 -135 124 -164 41 -20 63 -24 148 -24 l100 0 153 -127
c85 -72 152 -121 152 -113 0 8 -54 122 -119 253 -126 250 -168 309 -244 345
-62 30 -160 41 -252 30z"/>
<path d="M4987 2249 c-119 -28 -209 -120 -231 -236 l-5 -33 93 0 c93 0 94 0
105 28 19 45 66 67 143 67 52 0 73 -5 95 -21 36 -27 63 -80 63 -126 l0 -36
-162 -4 c-148 -3 -167 -5 -208 -27 -58 -30 -106 -76 -133 -126 -31 -57 -31
-183 0 -241 48 -91 120 -127 253 -128 84 -1 101 2 151 26 31 16 64 37 75 49
18 20 18 20 29 -23 l10 -43 93 0 93 0 -1 321 c-1 375 -5 398 -82 470 -83 79
-247 115 -381 83z m253 -559 l0 -70 -41 -29 c-55 -40 -102 -54 -162 -48 -39 3
-56 11 -74 31 -46 54 -21 141 51 172 19 8 70 13 129 14 l97 0 0 -70z"/>
<path d="M5827 2250 c-149 -38 -246 -162 -266 -341 -25 -220 53 -396 206 -466
44 -20 72 -26 132 -26 91 0 132 15 195 74 l46 42 0 -54 c-1 -137 -51 -210
-155 -230 -61 -11 -130 4 -175 40 -30 24 -47 29 -118 33 -92 7 -84 13 -96 -74
-4 -33 0 -41 40 -78 97 -89 257 -121 425 -86 129 28 218 97 260 202 24 58 24
63 27 502 l3 443 -93 -3 -93 -3 -3 -43 -3 -43 -41 37 c-22 20 -60 45 -84 55
-51 23 -153 32 -207 19z m177 -191 c83 -21 127 -85 134 -196 7 -113 -3 -158
-49 -208 -96 -104 -254 -67 -294 68 -17 59 -19 155 -4 210 14 52 71 113 117
125 50 13 48 13 96 1z"/>
<path d="M7609 2247 c-105 -30 -173 -90 -210 -187 -31 -81 -32 -80 74 -80 l93
0 11 30 c17 44 89 74 160 67 91 -9 131 -49 135 -133 l3 -49 -160 -5 c-143 -4
-165 -8 -209 -29 -103 -51 -155 -132 -156 -242 0 -84 36 -159 97 -206 103 -77
304 -66 396 21 34 32 37 32 37 4 0 -13 3 -33 6 -46 6 -22 10 -23 101 -20 l94
3 -1 317 c-1 378 -4 396 -84 474 -33 32 -71 57 -102 68 -64 23 -224 30 -285
13z m261 -551 c0 -61 -2 -65 -37 -96 -49 -43 -92 -60 -153 -60 -129 0 -157
143 -39 202 25 14 58 18 132 18 l97 0 0 -64z"/>
<path d="M8615 2251 c-51 -13 -91 -39 -129 -83 l-36 -42 0 30 c0 73 -2 74
-111 74 l-99 0 0 -430 0 -430 104 0 105 0 3 268 c3 296 8 319 71 364 36 26
124 35 181 20 l39 -11 -7 92 c-12 155 -12 157 -55 156 -20 -1 -49 -4 -66 -8z"/>
<path d="M10290 2245 c-114 -32 -217 -128 -260 -242 -72 -191 -39 -405 82
-526 173 -173 516 -147 618 47 14 25 22 47 19 50 -3 4 -38 16 -78 28 l-72 21
-27 -26 c-61 -59 -185 -76 -262 -37 -60 31 -110 111 -110 176 l0 24 288 2 287
3 3 65 c6 136 -54 288 -140 353 -88 68 -234 93 -348 62z m204 -198 c43 -24 70
-62 81 -114 l7 -33 -186 0 c-207 0 -203 -2 -167 68 38 73 83 100 171 101 39 1
66 -6 94 -22z"/>
<path d="M11272 2250 c-54 -11 -101 -40 -141 -85 l-30 -35 -7 50 -7 50 -103 0
-104 0 2 -427 3 -428 105 0 105 0 5 291 5 291 29 37 c67 89 199 86 248 -5 16
-30 18 -62 18 -321 l0 -288 105 0 105 0 0 310 c0 184 -4 329 -11 360 -6 28
-25 72 -42 98 -54 80 -177 124 -285 102z"/>
<path d="M6492 1893 l3 -338 28 -58 c79 -161 312 -184 461 -47 l46 43 0 -57 0
-56 105 0 105 0 0 425 0 425 -110 0 -110 0 0 -282 c0 -266 -1 -285 -20 -316
-41 -66 -159 -91 -225 -48 -56 37 -60 56 -63 364 l-3 282 -110 0 -110 0 3
-337z"/>
<path d="M1044 2188 c-154 -115 -262 -287 -316 -505 -18 -72 -22 -115 -22
-243 1 -133 5 -168 26 -251 61 -229 178 -421 314 -518 37 -27 46 -31 40 -15
-30 76 -78 355 -95 559 -31 355 8 754 94 978 10 23 -6 22 -41 -5z"/>
<path d="M1697 2039 c-26 -15 -49 -74 -41 -107 23 -99 151 -185 238 -161 60
16 84 85 52 148 -18 33 -83 94 -125 115 -34 18 -97 20 -124 5z"/>
<path d="M2134 1820 c-73 -29 -68 -126 8 -183 45 -33 91 -47 158 -47 59 0 100
23 100 56 0 46 -75 125 -155 164 -44 21 -76 24 -111 10z"/>
<path d="M1853 1571 c-25 -24 -38 -83 -23 -111 15 -27 110 -54 164 -46 82 14
114 84 57 126 -70 49 -163 64 -198 31z"/>
<path d="M2611 1416 c2 -3 49 -19 104 -37 110 -35 173 -39 245 -16 45 15 45
15 19 25 -43 17 -173 32 -276 32 -53 0 -94 -2 -92 -4z"/>
<path d="M2601 1240 c-24 -5 -45 -11 -48 -13 -6 -7 170 -85 207 -92 28 -5 48
1 105 29 78 40 111 63 103 71 -10 11 -322 14 -367 5z"/>
</g>
</svg>
